<svg width="160" height="35" viewBox="0 0 160 35" fill="none" xmlns="http://www.w3.org/2000/svg">
<path d="M51.6624 15.4763C52.0109 14.5459 52.582 13.8481 53.3758 13.3828C54.189 12.9176 55.0893 12.685 56.0767 12.685V16.8719C54.9344 16.7363 53.9083 16.9689 52.9983 17.5698C52.1077 18.1707 51.6624 19.1689 51.6624 20.5646V27.5137H47.916V12.9758H51.6624V15.4763Z" fill="#0B0B0B"/>
<path d="M60.1264 11.2312C59.5068 11.2312 58.9647 11.0083 58.5001 10.5625C58.0548 10.0973 57.8321 9.55451 57.8321 8.93422C57.8321 8.31394 58.0548 7.77119 58.5001 7.30598C58.9647 6.84076 59.5068 6.60815 60.1264 6.60815C60.7653 6.60815 61.3074 6.84076 61.7527 7.30598C62.2174 7.77119 62.4497 8.31394 62.4497 8.93422C62.4497 9.55451 62.2174 10.0973 61.7527 10.5625C61.3074 11.0083 60.7653 11.2312 60.1264 11.2312ZM58.2677 27.5137V12.9758H62.0141V27.5137H58.2677Z" fill="#0B0B0B"/>
<path d="M68.7855 17.1046C68.7855 17.4922 69.0372 17.8121 69.5406 18.0641C70.0634 18.2967 70.6926 18.5099 71.4283 18.7037C72.164 18.8782 72.8997 19.1108 73.6355 19.4015C74.3712 19.6729 74.9907 20.1381 75.4941 20.7972C76.0169 21.4562 76.2782 22.2801 76.2782 23.2686C76.2782 24.7612 75.7168 25.9145 74.5938 26.7287C73.4903 27.5234 72.1059 27.9208 70.4409 27.9208C67.4593 27.9208 65.4264 26.7674 64.3422 24.4608L67.5948 22.629C68.0208 23.8889 68.9695 24.5189 70.4409 24.5189C71.7768 24.5189 72.4448 24.1021 72.4448 23.2686C72.4448 22.881 72.1834 22.5708 71.6606 22.3382C71.1573 22.0862 70.5377 21.8633 69.802 21.6695C69.0663 21.4756 68.3305 21.2333 67.5948 20.9426C66.8591 20.6518 66.2299 20.1963 65.7071 19.576C65.2037 18.9363 64.9521 18.1416 64.9521 17.1918C64.9521 15.7574 65.4748 14.6331 66.5203 13.819C67.5851 12.9855 68.9017 12.5687 70.4699 12.5687C71.651 12.5687 72.7255 12.8401 73.6936 13.3828C74.6616 13.9062 75.4264 14.6622 75.9878 15.6508L72.7933 17.3953C72.3286 16.4067 71.5542 15.9124 70.4699 15.9124C69.9859 15.9124 69.5793 16.0191 69.2502 16.2323C68.9404 16.4455 68.7855 16.7363 68.7855 17.1046Z" fill="#0B0B0B"/>
<path d="M92.0757 27.5137H87.7195L82.4339 20.9135V27.5137H78.6876V7.1606H82.4339V19.3725L87.4291 12.9758H91.9015L86.0641 20.1575L92.0757 27.5137Z" fill="#0B0B0B"/>
<path d="M102.397 12.5687C104.352 12.5687 106.017 13.315 107.392 14.8076C108.786 16.2807 109.483 18.0931 109.483 20.2447C109.483 22.3964 108.786 24.2185 107.392 25.711C106.017 27.1842 104.352 27.9208 102.397 27.9208C100.364 27.9208 98.7956 27.2133 97.6921 25.7982V27.5137H93.9457V7.1606H97.6921V14.6913C98.7956 13.2762 100.364 12.5687 102.397 12.5687ZM98.8247 23.2105C99.5798 23.9665 100.538 24.3444 101.7 24.3444C102.861 24.3444 103.82 23.9665 104.575 23.2105C105.349 22.4351 105.737 21.4466 105.737 20.2447C105.737 19.0429 105.349 18.0641 104.575 17.3081C103.82 16.5327 102.861 16.145 101.7 16.145C100.538 16.145 99.5798 16.5327 98.8247 17.3081C98.0696 18.0641 97.6921 19.0429 97.6921 20.2447C97.6921 21.4466 98.0696 22.4351 98.8247 23.2105Z" fill="#0B0B0B"/>
<path d="M124.497 25.711C123.006 27.1842 121.186 27.9208 119.037 27.9208C116.888 27.9208 115.068 27.1842 113.577 25.711C112.106 24.2185 111.37 22.3964 111.37 20.2447C111.37 18.0931 112.106 16.2807 113.577 14.8076C115.068 13.315 116.888 12.5687 119.037 12.5687C121.186 12.5687 123.006 13.315 124.497 14.8076C125.988 16.2807 126.733 18.0931 126.733 20.2447C126.733 22.3964 125.988 24.2185 124.497 25.711ZM116.22 23.1233C116.975 23.8792 117.914 24.2572 119.037 24.2572C120.16 24.2572 121.099 23.8792 121.854 23.1233C122.609 22.3673 122.987 21.4078 122.987 20.2447C122.987 19.0817 122.609 18.1222 121.854 17.3662C121.099 16.6103 120.16 16.2323 119.037 16.2323C117.914 16.2323 116.975 16.6103 116.22 17.3662C115.484 18.1222 115.116 19.0817 115.116 20.2447C115.116 21.4078 115.484 22.3673 116.22 23.1233Z" fill="#0B0B0B"/>
<path d="M141.74 25.711C140.249 27.1842 138.429 27.9208 136.28 27.9208C134.131 27.9208 132.311 27.1842 130.821 25.711C129.349 24.2185 128.613 22.3964 128.613 20.2447C128.613 18.0931 129.349 16.2807 130.821 14.8076C132.311 13.315 134.131 12.5687 136.28 12.5687C138.429 12.5687 140.249 13.315 141.74 14.8076C143.231 16.2807 143.976 18.0931 143.976 20.2447C143.976 22.3964 143.231 24.2185 141.74 25.711ZM133.463 23.1233C134.218 23.8792 135.157 24.2572 136.28 24.2572C137.403 24.2572 138.342 23.8792 139.097 23.1233C139.852 22.3673 140.23 21.4078 140.23 20.2447C140.23 19.0817 139.852 18.1222 139.097 17.3662C138.342 16.6103 137.403 16.2323 136.28 16.2323C135.157 16.2323 134.218 16.6103 133.463 17.3662C132.728 18.1222 132.36 19.0817 132.36 20.2447C132.36 21.4078 132.728 22.3673 133.463 23.1233Z" fill="#0B0B0B"/>
<path d="M160 27.5137H155.644L150.358 20.9135V27.5137H146.612V7.1606H150.358V19.3725L155.353 12.9758H159.826L153.988 20.1575L160 27.5137Z" fill="#0B0B0B"/>
<g clip-path="url(#clip0)">
<path fill-rule="evenodd" clip-rule="evenodd" d="M2.38881 0.0205078H31.933C33.2409 0.0205078 34.3012 1.08204 34.3012 2.39151V11.8374L17.9674 7.05459C17.3668 9.80358 18.7294 12.5526 21.0564 13.2398L32.9489 16.7173L34.3012 17.1137V22.7888L22.9681 19.4697L13.2722 16.628L22.9647 19.4663L12.6681 16.4493C10.2965 15.7517 7.74982 17.4698 7.04279 20.2738C6.70423 21.6022 6.8352 23.0069 7.41346 24.2495C7.66621 24.8178 8.03639 25.326 8.49962 25.7406C8.96284 26.1553 9.50858 26.4669 10.1009 26.6549L12.9272 27.484L12.5034 27.3628L14.9157 28.0695C14.3163 30.8177 15.6788 33.5654 18.0052 34.2524L18.3107 34.3417H2.38881C1.08089 34.3417 0.020607 33.2802 0.020607 31.9707V2.39151C0.020607 1.08204 1.08089 0.0205078 2.38881 0.0205078ZM32.516 34.2693C33.542 34.0093 34.3012 33.0788 34.3012 31.9707V28.057L30.3885 26.9092L20.5724 24.0537C19.9919 23.8921 19.3827 23.8619 18.789 23.9654C18.1954 24.0688 17.6322 24.3032 17.1403 24.6516C16.0435 25.4242 15.2671 26.5719 14.9574 27.8782C14.9574 27.9156 14.9461 27.9542 14.9349 27.9925C14.9289 28.0131 14.9229 28.0336 14.9187 28.0538L14.9059 28.05L12.9272 27.484L14.9162 28.0675C14.9162 28.0674 14.9162 28.0673 14.9162 28.0672C14.917 28.0627 14.9178 28.0583 14.9187 28.0538L20.3974 29.6616L30.1997 32.5343C30.792 32.7224 31.3377 33.034 31.801 33.4486C32.0731 33.6921 32.3131 33.968 32.516 34.2693ZM34.3012 17.1136L32.9489 16.7173L34.3012 17.1136V17.1136Z" fill="#47B5DD"/>
</g>
<defs>
<clipPath id="clip0">
<rect width="34.3218" height="34.3624" fill="white"/>
</clipPath>
</defs>
</svg>
