<svg width="191" height="34" viewBox="0 0 191 34" fill="none" xmlns="http://www.w3.org/2000/svg">
<path d="M31.6248 34H2.37525C1.08583 34 0 32.9142 0 31.6248V2.37525C0 1.08583 1.08583 0 2.37525 0H31.6248C32.9142 0 34 1.08583 34 2.37525V31.6248C34 32.9142 32.9142 34 31.6248 34Z" fill="white"/>
<path fill-rule="evenodd" clip-rule="evenodd" d="M31.5569 0H2.37525C1.08583 0 0.0678643 1.08583 0.0678643 2.37525V11.6727L16.2196 6.92216C16.8304 9.63673 15.4731 12.3513 13.1657 13.0299L1.35729 16.491L0 16.8982V22.4631L11.1976 19.2056L20.7665 16.4232L11.1976 19.2056L21.3773 16.2196C23.7525 15.5409 26.2635 17.2375 26.9421 20.02C27.2815 21.3094 27.1457 22.7345 26.6028 23.9561C26.3314 24.499 25.992 25.0419 25.517 25.4491C25.0419 25.8563 24.499 26.1956 23.9561 26.3313L21.1737 27.1457L21.5809 27.01L19.2056 27.6886C19.8164 30.4032 18.4591 33.1178 16.1517 33.7964L15.8803 33.8643H31.6248C32.9142 33.8643 33.9322 32.8463 33.9322 31.5569V2.37525C33.9322 1.08583 32.9142 0 31.5569 0ZM1.83234 33.7964C0.814372 33.525 0.0678643 32.6427 0.0678643 31.5569V27.6886L3.93613 26.5349L13.6407 23.7525C14.1836 23.6168 14.7944 23.5489 15.4052 23.6846C16.016 23.8204 16.5589 24.024 17.0339 24.3633C18.1198 25.1098 18.8663 26.2635 19.2056 27.5529C19.2056 27.6208 19.2056 27.6208 19.2056 27.6886V27.7565L21.1737 27.2136L19.2056 27.7565L13.7765 29.3174L4.07186 32.0998C3.46108 32.3034 2.91817 32.5749 2.51098 32.982C2.23952 33.2535 2.03593 33.525 1.83234 33.7964ZM0.0678643 16.8982L1.42515 16.491L0.0678643 16.8982Z" fill="#43A1F7"/>
<path d="M53.6413 26.9697C51.6084 26.9697 49.9007 26.4886 48.5184 25.6064C47.136 24.7243 46.1602 23.5213 45.5909 21.9976L49.0876 19.9927C49.9007 22.0778 51.4458 23.0401 53.804 23.0401C54.9424 23.0401 55.7556 22.7996 56.2435 22.3986C56.7314 21.9976 57.0566 21.5164 57.0566 20.8749C57.0566 20.1531 56.7314 19.5917 56.0808 19.1908C55.4303 18.7898 54.2919 18.3888 52.6655 17.9076C51.771 17.667 50.9579 17.3463 50.3073 17.1057C49.6568 16.8651 49.0063 16.4641 48.437 16.0631C47.7865 15.582 47.2986 15.0206 46.9733 14.379C46.6481 13.6573 46.4854 12.8553 46.4854 11.9732C46.4854 10.1287 47.136 8.68515 48.437 7.64261C49.7381 6.60006 51.3645 6.0387 53.1534 6.0387C54.7798 6.0387 56.2435 6.43967 57.5445 7.24163C58.7643 8.04358 59.7401 9.16632 60.472 10.5296L57.0566 12.4543C56.2435 10.69 54.9424 9.88808 53.1534 9.88808C52.3403 9.88808 51.6897 10.0485 51.2018 10.4494C50.7139 10.8504 50.47 11.3316 50.47 11.893C50.47 12.5345 50.7139 13.0157 51.2831 13.4167C51.8524 13.8177 52.8282 14.2186 54.3732 14.6998C55.0237 14.8602 55.4303 15.0206 55.7556 15.181C56.0808 15.2612 56.4874 15.4216 57.0566 15.6622C57.6259 15.9027 58.0325 16.0631 58.3577 16.3037C58.683 16.4641 59.0083 16.7849 59.4148 17.1057C59.8214 17.4265 60.0654 17.7472 60.3093 18.1482C60.5533 18.469 60.7159 18.9502 60.7972 19.4313C60.9599 19.9125 61.0412 20.4739 61.0412 21.0353C61.0412 22.8798 60.3906 24.4035 59.0083 25.446C57.6259 26.4084 55.8369 26.9697 53.6413 26.9697Z" fill="#191919"/>
<path d="M73.076 12.2137H76.8165V26.5687H73.076V24.9648C72.1815 26.3282 70.7178 26.9697 68.7661 26.9697C67.1398 26.9697 65.8387 26.4084 64.7816 25.3658C63.7245 24.3233 63.2366 22.8798 63.2366 20.9551V12.1335H66.9772V20.4739C66.9772 21.4362 67.2211 22.158 67.7903 22.6392C68.2782 23.1203 69.0101 23.4411 69.9046 23.4411C70.8804 23.4411 71.6936 23.1203 72.2628 22.559C72.832 21.9976 73.1573 21.0353 73.1573 19.9125V12.2137H73.076Z" fill="#191919"/>
<path d="M88.7703 11.8129C90.722 11.8129 92.4296 12.5346 93.812 13.9781C95.1944 15.4217 95.9262 17.2662 95.9262 19.3513C95.9262 21.4363 95.1944 23.2808 93.812 24.7244C92.4296 26.1679 90.722 26.8896 88.7703 26.8896C86.7374 26.8896 85.1924 26.1679 84.0539 24.8046V32.2627H80.3134V12.2138H84.0539V13.898C85.1924 12.4544 86.7374 11.8129 88.7703 11.8129ZM85.1924 22.3185C85.9242 23.0402 86.9 23.4412 88.1198 23.4412C89.2582 23.4412 90.234 23.0402 91.0472 22.3185C91.7791 21.5967 92.1857 20.5542 92.1857 19.4314C92.1857 18.2285 91.7791 17.2662 91.0472 16.5444C90.3154 15.8226 89.3396 15.4217 88.1198 15.4217C86.9814 15.4217 86.0056 15.8226 85.1924 16.5444C84.4605 17.2662 84.0539 18.3087 84.0539 19.4314C84.0539 20.5542 84.4605 21.5165 85.1924 22.3185Z" fill="#191919"/>
<path d="M101.781 20.875C102.269 22.6393 103.651 23.6016 105.928 23.6016C107.392 23.6016 108.449 23.1204 109.181 22.1581L112.19 23.9224C110.726 26.0075 108.612 26.9698 105.847 26.9698C103.407 26.9698 101.537 26.2481 100.073 24.8045C98.6097 23.361 97.8778 21.5165 97.8778 19.3512C97.8778 17.186 98.6097 15.3415 100.073 13.8979C101.537 12.4544 103.326 11.7327 105.603 11.7327C107.717 11.7327 109.506 12.4544 110.888 13.8979C112.271 15.3415 113.003 17.186 113.003 19.2711C113.003 19.7522 112.921 20.2334 112.84 20.7948H101.781V20.875ZM101.7 17.9879H109.1C108.856 17.0256 108.449 16.3038 107.798 15.8226C107.148 15.3415 106.335 15.1009 105.522 15.1009C104.546 15.1009 103.651 15.3415 103.001 15.8226C102.35 16.384 101.944 17.1058 101.7 17.9879Z" fill="#191919"/>
<path d="M119.264 14.6197C119.59 13.7376 120.159 13.0158 120.972 12.5346C121.785 12.0535 122.68 11.8129 123.655 11.8129V15.983C122.517 15.8226 121.46 16.0632 120.565 16.7048C119.671 17.2662 119.183 18.3087 119.183 19.672V26.5689H115.442V12.2138H119.183V14.6197H119.264Z" fill="#191919"/>
<path d="M132.275 26.9698C130.08 26.9698 128.209 26.2481 126.745 24.8045C125.282 23.361 124.55 21.5165 124.55 19.4314C124.55 17.3464 125.282 15.5019 126.745 14.0583C128.209 12.6148 130.08 11.8931 132.275 11.8931C133.657 11.8931 134.959 12.2138 136.178 12.9356C137.317 13.5772 138.211 14.5395 138.862 15.6623L135.609 17.5068C135.284 16.9454 134.877 16.4642 134.308 16.0632C133.739 15.7425 133.088 15.5821 132.275 15.5821C131.137 15.5821 130.242 15.983 129.51 16.7048C128.778 17.4266 128.372 18.3889 128.372 19.5116C128.372 20.6344 128.778 21.5967 129.51 22.3185C130.242 23.0402 131.218 23.4412 132.275 23.4412C133.007 23.4412 133.739 23.2808 134.308 22.9601C134.877 22.6393 135.365 22.1581 135.609 21.5967L138.862 23.4412C138.211 24.564 137.317 25.4461 136.178 26.1679C134.959 26.649 133.739 26.9698 132.275 26.9698Z" fill="#191919"/>
<path d="M143.822 20.875C144.31 22.6393 145.692 23.6016 147.969 23.6016C149.433 23.6016 150.49 23.1204 151.222 22.1581L154.231 23.9224C152.767 26.0075 150.653 26.9698 147.888 26.9698C145.448 26.9698 143.578 26.2481 142.114 24.8045C140.651 23.361 139.919 21.5165 139.919 19.3512C139.919 17.186 140.651 15.3415 142.114 13.8979C143.578 12.4544 145.367 11.7327 147.644 11.7327C149.758 11.7327 151.547 12.4544 152.93 13.8979C154.312 15.3415 155.044 17.186 155.044 19.2711C155.044 19.7522 154.962 20.2334 154.881 20.7948H143.822V20.875ZM143.741 17.9879H151.141C150.897 17.0256 150.49 16.3038 149.84 15.8226C149.189 15.3415 148.376 15.1009 147.563 15.1009C146.587 15.1009 145.692 15.3415 145.042 15.8226C144.391 16.384 143.985 17.1058 143.741 17.9879Z" fill="#191919"/>
<path d="M168.461 6.4397H172.202V26.5688H168.461V24.8847C167.323 26.248 165.778 26.9698 163.745 26.9698C161.793 26.9698 160.085 26.248 158.703 24.8045C157.321 23.361 156.589 21.5165 156.589 19.4314C156.589 17.3463 157.321 15.5018 158.703 14.0583C160.085 12.6148 161.793 11.893 163.745 11.893C165.778 11.893 167.323 12.6148 168.461 13.9781V6.4397ZM161.549 22.3184C162.281 23.0402 163.257 23.4411 164.476 23.4411C165.696 23.4411 166.591 23.0402 167.404 22.3184C168.136 21.5967 168.542 20.5541 168.542 19.4314C168.542 18.2284 168.136 17.2661 167.404 16.5443C166.672 15.8226 165.696 15.4216 164.476 15.4216C163.257 15.4216 162.362 15.8226 161.549 16.5443C160.817 17.2661 160.411 18.3086 160.411 19.4314C160.411 20.5541 160.817 21.5165 161.549 22.3184Z" fill="#191919"/>
<path d="M178.869 20.875C179.357 22.6393 180.74 23.6016 183.016 23.6016C184.48 23.6016 185.537 23.1204 186.269 22.1581L189.278 23.9224C187.814 26.0075 185.7 26.9698 182.935 26.9698C180.496 26.9698 178.625 26.2481 177.162 24.8045C175.698 23.361 174.966 21.5165 174.966 19.3512C174.966 17.186 175.698 15.3415 177.162 13.8979C178.625 12.4544 180.414 11.7327 182.691 11.7327C184.805 11.7327 186.594 12.4544 187.977 13.8979C189.359 15.3415 190.091 17.186 190.091 19.2711C190.091 19.7522 190.01 20.2334 189.928 20.7948H178.869V20.875ZM178.788 18.0681H186.188C185.944 17.1058 185.537 16.384 184.887 15.9028C184.236 15.4217 183.423 15.1811 182.61 15.1811C181.634 15.1811 180.74 15.4217 180.089 15.9028C179.439 16.384 178.951 17.1058 178.788 18.0681Z" fill="#191919"/>
</svg>
